<?xml version="1.0" encoding="UTF-8" standalone="no"?>
<!-- Created with Inkscape (http://www.inkscape.org/) -->

<svg
   version="1.1"
   id="svg374"
   xml:space="preserve"
   width="530.66669"
   height="530.66669"
   viewBox="0 0 530.66669 530.66669"
   sodipodi:docname="boy-fishing-publicdomainvectors.org.svg"
   inkscape:version="1.1.2 (b8e25be833, 2022-02-05)"
   xmlns:inkscape="http://www.inkscape.org/namespaces/inkscape"
   xmlns:sodipodi="http://sodipodi.sourceforge.net/DTD/sodipodi-0.dtd"
   xmlns="http://www.w3.org/2000/svg"
   xmlns:svg="http://www.w3.org/2000/svg"><defs
     id="defs378"><clipPath
       clipPathUnits="userSpaceOnUse"
       id="clipPath388"><path
         d="M 0,398 H 398 V 0 H 0 Z"
         id="path386" /></clipPath></defs><sodipodi:namedview
     id="namedview376"
     pagecolor="#ffffff"
     bordercolor="#666666"
     borderopacity="1.0"
     inkscape:pageshadow="2"
     inkscape:pageopacity="0.0"
     inkscape:pagecheckerboard="0"
     showgrid="false"
     inkscape:zoom="1.5659547"
     inkscape:cx="265.33334"
     inkscape:cy="265.33334"
     inkscape:window-width="1920"
     inkscape:window-height="1018"
     inkscape:window-x="-8"
     inkscape:window-y="-8"
     inkscape:window-maximized="1"
     inkscape:current-layer="g380" /><g
     id="g380"
     inkscape:groupmode="layer"
     inkscape:label="boy-fishing-publicdomainvectors.org"
     transform="matrix(1.3333333,0,0,-1.3333333,0,530.66667)"><g
       id="g382"><g
         id="g384"
         clip-path="url(#clipPath388)"><path
           d="m 339.554,226.904 -0.47,-0.225 c -0.011,-0.729 -0.02,-1.456 -0.029,-2.184 l 0.475,-1.306 c 0.01,1.239 0.018,2.477 0.024,3.715"
           style="fill:#dae262;fill-opacity:1;fill-rule:nonzero;stroke:none"
           id="path390" /><path
           d="m 340.058,221.74 0.469,-1.288 c 0.04,2.194 0.089,4.387 0.132,6.58 0.001,0.135 0.003,0.271 0.004,0.406 l -0.52,-0.25 c -0.03,-1.816 -0.058,-3.631 -0.085,-5.448"
           style="fill:#dae262;fill-opacity:1;fill-rule:nonzero;stroke:none"
           id="path392" /><path
           d="m 340.159,294.688 c 0.155,1.683 0.085,3.374 0.092,5.06 0.014,0.48 -0.092,0.993 0.126,1.447 0.06,-2.124 0.014,-4.247 -0.007,-6.37 l 0.501,0.537 c -0.002,1.896 -0.006,3.79 -0.007,5.686 0.372,-0.028 0.757,-0.057 1.141,-0.081 -0.022,0.134 -0.057,0.401 -0.077,0.535 2.115,0.55 4.308,0.897 6.323,1.771 l 0.227,0.244 c -0.034,0.742 -0.424,1.478 -1.1,1.816 -1.482,0.05 -2.943,-0.313 -4.405,-0.503 -4.045,-0.66 -8.077,-1.405 -12.094,-2.221 l 0.094,-3.119 c 0.154,0.031 0.309,0.065 0.464,0.096 2.753,0.532 5.5,1.144 8.289,1.486 -0.028,-2.339 -0.05,-4.676 -0.073,-7.015 l 0.505,0.541 c 0,0.03 10e-4,0.06 10e-4,0.09"
           style="fill:#df2200;fill-opacity:1;fill-rule:nonzero;stroke:none"
           id="path394" /><path
           d="m 338.778,139.271 c 0.008,0.379 0.013,0.758 0.02,1.137 l -0.488,0.1 c -0.027,-3.042 -0.052,-6.083 -0.074,-9.124 -0.007,-2.502 -0.021,-5.004 -0.044,-7.506 l 0.456,-0.931 c 0.028,5.442 0.086,10.885 0.13,16.324"
           style="fill:#14b4ec;fill-opacity:1;fill-rule:nonzero;stroke:none"
           id="path396" /><path
           d="m 339.3,121.618 0.463,-0.946 c 0.042,4.725 0.191,9.451 0.252,14.173 0.062,1.76 0.119,3.52 0.173,5.28 l -0.505,0.104 c -0.18,-6.204 -0.298,-12.407 -0.383,-18.611"
           style="fill:#14b4ec;fill-opacity:1;fill-rule:nonzero;stroke:none"
           id="path398" /><path
           d="m 348.484,303.375 c 0.001,0.048 -0.005,0.095 -0.006,0.142 l -0.227,-0.244 c 0.078,0.035 0.156,0.067 0.233,0.102"
           style="fill:#dc2b00;fill-opacity:1;fill-rule:nonzero;stroke:none"
           id="path400" /><path
           d="m 340.367,292.113 c 0.007,-2.181 0.013,-4.363 0.019,-6.546 l 0.499,0.021 c -0.005,3.258 -0.009,6.516 -0.014,9.774 l -0.501,-0.537 c -0.009,-0.903 -0.014,-1.807 -0.003,-2.712"
           style="fill:#dc2b00;fill-opacity:1;fill-rule:nonzero;stroke:none"
           id="path402" /><path
           d="m 340.158,294.598 -0.505,-0.541 c -0.027,-2.841 -0.052,-5.681 -0.076,-8.522 l 0.481,0.02 c 0.028,3.014 0.06,6.029 0.1,9.043"
           style="fill:#dc2b00;fill-opacity:1;fill-rule:nonzero;stroke:none"
           id="path404" /><path
           d="m 340.058,285.555 -0.481,-0.02 c -0.012,-1.53 -0.025,-3.061 -0.037,-4.593 l 0.477,-0.249 c 0.011,1.62 0.026,3.241 0.041,4.862"
           style="fill:#df5e00;fill-opacity:1;fill-rule:nonzero;stroke:none"
           id="path406" /><path
           d="m 340.4,280.492 0.493,-0.259 c -0.003,1.786 -0.005,3.57 -0.008,5.355 l -0.499,-0.021 c 0.006,-1.691 0.01,-3.383 0.014,-5.075"
           style="fill:#df5e00;fill-opacity:1;fill-rule:nonzero;stroke:none"
           id="path408" /><path
           d="m 339.765,142.977 c -0.03,-0.916 -0.055,-1.832 -0.082,-2.748 l 0.505,-0.104 c 0.115,3.808 0.209,7.616 0.278,11.425 l -0.496,-0.402 c -0.049,-2.724 -0.115,-5.448 -0.205,-8.171"
           style="fill:#67d7ef;fill-opacity:1;fill-rule:nonzero;stroke:none"
           id="path410" /><path
           d="m 338.878,150.265 -0.483,-0.392 c -0.029,-3.122 -0.058,-6.244 -0.085,-9.365 l 0.488,-0.1 c 0.054,3.285 0.067,6.571 0.08,9.857"
           style="fill:#67d7ef;fill-opacity:1;fill-rule:nonzero;stroke:none"
           id="path412" /><path
           d="m 340.427,252.753 c 0,-8.523 -0.148,-17.045 -0.284,-25.565 l 0.52,0.25 c 0.033,6.123 0.219,12.241 0.242,18.364 0.021,11.477 0.005,22.954 -0.012,34.431 l -0.493,0.259 c 0.025,-9.247 0.041,-18.494 0.027,-27.739"
           style="fill:#e88200;fill-opacity:1;fill-rule:nonzero;stroke:none"
           id="path414" /><path
           d="m 339.563,229.603 c 0.177,13.269 0.202,26.542 0.392,39.811 0.013,3.759 0.033,7.519 0.062,11.279 l -0.477,0.249 c -0.045,-5.772 -0.09,-11.546 -0.155,-17.321 -0.064,-12.195 -0.261,-24.393 -0.296,-36.593 -0.002,-0.116 -0.003,-0.233 -0.005,-0.349 l 0.47,0.225 c 0.004,0.9 0.009,1.799 0.009,2.699"
           style="fill:#e88200;fill-opacity:1;fill-rule:nonzero;stroke:none"
           id="path416" /><path
           d="m 339.304,195.532 c 0,9.219 0.156,18.438 0.226,27.657 l -0.475,1.306 c -0.151,-11.351 -0.174,-22.704 -0.319,-34.056 -0.075,-5.47 -0.047,-10.943 -0.121,-16.412 l 0.472,-0.15 c 0.052,7.219 0.099,14.436 0.217,21.655"
           style="fill:#dcf07c;fill-opacity:1;fill-rule:nonzero;stroke:none"
           id="path418" /><path
           d="m 339.983,216.154 c -0.141,-12.121 -0.014,-24.239 0.014,-36.356 0.018,-2.075 0.034,-4.15 0.048,-6.225 l 0.5,-0.158 c -0.098,12.544 -0.149,25.089 -0.097,37.633 -0.018,3.135 0.022,6.269 0.079,9.404 l -0.469,1.288 c -0.028,-1.861 -0.053,-3.723 -0.075,-5.586"
           style="fill:#dcf07c;fill-opacity:1;fill-rule:nonzero;stroke:none"
           id="path420" /><path
           d="m 342.667,69.277 c -0.416,1.293 -1.554,2.118 -2.402,3.103 -0.507,0.585 -1.191,1.177 -1.141,2.025 0.024,1.131 -0.103,2.331 0.341,3.399 -0.038,0.081 -0.122,0.246 -0.165,0.331 0.07,6.56 0.24,13.121 0.236,19.681 0.039,6.557 0.158,13.111 0.215,19.664 -0.004,1.065 0.002,2.128 0.012,3.192 l -0.463,0.946 c -0.2,-14.411 -0.232,-28.824 -0.487,-43.23 -0.217,0.426 -0.46,0.859 -0.436,1.352 0.043,7.793 0.035,15.594 0.102,23.39 0.008,5.952 0.169,11.899 0.159,17.85 0.002,0.657 0.007,1.312 0.01,1.967 l -0.456,0.931 c -0.025,-2.896 -0.062,-5.792 -0.111,-8.687 -0.038,-7.029 -0.081,-14.057 -0.119,-21.087 -0.007,-4.792 -0.176,-9.582 -0.099,-14.375 0.035,-0.44 0.198,-0.862 0.335,-1.285 -0.306,-0.151 -0.631,-0.377 -0.574,-0.771 -0.103,-1.387 0.204,-2.958 -0.659,-4.169 -1.415,-1.317 -3.68,-0.997 -5.11,-2.293 -0.884,-1.123 -0.834,-2.668 -0.6,-4.037 l 11.205,-1.82 c 0.03,1.31 0.608,2.624 0.207,3.923"
           style="fill:#31bded;fill-opacity:1;fill-rule:nonzero;stroke:none"
           id="path422" /><path
           d="m 332.715,65.063 c -0.007,-1.318 -0.951,-2.515 -0.669,-3.868 0.355,-0.957 1.408,-1.348 2.274,-1.717 2.322,-0.864 5.058,-1.377 7.365,-0.205 1.369,0.698 1.753,2.391 1.658,3.803 -0.039,0.789 -0.75,1.328 -0.884,2.078 -0.002,0.067 0,0.133 10e-4,0.2 l -11.205,1.82 c 0.028,-0.163 0.058,-0.324 0.09,-0.481 0.116,-0.782 0.975,-1.039 1.37,-1.63"
           style="fill:#0181dd;fill-opacity:1;fill-rule:nonzero;stroke:none"
           id="path424" /><path
           d="m 339.97,151.148 0.496,0.402 c 0.114,6.327 0.158,12.654 0.101,18.982 -0.007,0.961 -0.014,1.922 -0.022,2.883 l -0.5,0.158 c 0.05,-7.475 0.058,-14.951 -0.075,-22.425"
           style="fill:#b7f3bb;fill-opacity:1;fill-rule:nonzero;stroke:none"
           id="path426" /><path
           d="m 338.94,158.722 c 0.071,5.051 0.11,10.104 0.147,15.155 l -0.472,0.15 c -0.016,-1.168 -0.035,-2.335 -0.062,-3.502 -0.034,-6.885 -0.096,-13.769 -0.158,-20.652 l 0.483,0.392 c 0.012,2.819 0.023,5.638 0.062,8.457"
           style="fill:#b7f3bb;fill-opacity:1;fill-rule:nonzero;stroke:none"
           id="path428" /><path
           d="m 299.831,293.843 c -0.301,-0.107 -0.602,-0.215 -0.901,-0.322 l 0.329,-2.705 c 2.309,0.835 4.631,1.637 6.966,2.396 l 0.968,3.142 c -2.461,-0.82 -4.913,-1.666 -7.362,-2.511"
           style="fill:#ef3500;fill-opacity:1;fill-rule:nonzero;stroke:none"
           id="path430" /><path
           d="m 323.777,301.094 c -5.622,-1.236 -11.125,-2.922 -16.584,-4.74 l -0.968,-3.142 c 2.7,0.878 5.419,1.699 8.16,2.444 5.492,1.436 11.028,2.694 16.588,3.834 l -0.094,3.119 c -2.372,-0.481 -4.739,-0.988 -7.102,-1.515"
           style="fill:#f43800;fill-opacity:1;fill-rule:nonzero;stroke:none"
           id="path432" /><path
           d="m 275.229,284.714 4.599,-1.492 c 2.321,0.943 4.647,1.876 6.98,2.789 4.122,1.67 8.268,3.292 12.451,4.805 l -0.329,2.705 c -7.94,-2.825 -15.838,-5.771 -23.701,-8.807"
           style="fill:#fb6100;fill-opacity:1;fill-rule:nonzero;stroke:none"
           id="path434" /><path
           d="m 254.854,163.211 0.042,1.518 c 0.003,0.125 0.01,0.25 0.015,0.374 l -3.136,-1.029 z"
           style="fill:#d8f890;fill-opacity:1;fill-rule:nonzero;stroke:none"
           id="path436" /><path
           d="m 254.675,156.601 c 0.059,2.204 0.119,4.407 0.179,6.61 l -3.079,0.863 z"
           style="fill:#c5f5c1;fill-opacity:1;fill-rule:nonzero;stroke:none"
           id="path438" /><path
           d="m 255.132,168.516 c 0.389,4.459 1.088,8.895 1.176,13.374 0.13,3.331 -1.539,6.504 -3.979,8.694 -1.635,1.465 -3.308,2.912 -5.181,4.067 -0.936,0.558 -1.886,1.092 -2.843,1.614 l 7.47,-32.191 z"
           style="fill:#ffd100;fill-opacity:1;fill-rule:nonzero;stroke:none"
           id="path440" /><path
           d="m 254.911,165.103 c 0.044,1.139 0.122,2.277 0.221,3.413 l -3.357,-4.442 z"
           style="fill:#f9ed2d;fill-opacity:1;fill-rule:nonzero;stroke:none"
           id="path442" /><path
           d="m 270.472,282.866 c -6.293,-2.525 -12.6,-5.011 -18.76,-7.853 -6.21,-2.753 -12.357,-5.654 -18.493,-8.573 l -0.35,-3.293 c 0.623,0.277 1.245,0.554 1.866,0.833 6.568,2.961 13.203,5.765 19.809,8.638 8.418,3.558 16.818,7.164 25.284,10.604 l -4.599,1.492 c -1.586,-0.612 -3.173,-1.228 -4.757,-1.848"
           style="fill:#ff9300;fill-opacity:1;fill-rule:nonzero;stroke:none"
           id="path444" /><path
           d="m 245.927,109.355 9.125,-1.32 c -0.801,3.949 -1.217,7.974 -1.142,12.006 0.124,12.188 0.434,24.375 0.765,36.56 l -2.9,7.473 z"
           style="fill:#cbf387;fill-opacity:1;fill-rule:nonzero;stroke:none"
           id="path446" /><path
           d="m 254.747,67.722 c 1.955,-0.406 4.016,-0.396 5.939,0.143 1.197,0.342 1.26,1.857 1.14,2.874 0,0.728 -0.638,1.075 -1.088,1.546 l -11.27,-1.76 c 1.601,-1.202 3.32,-2.326 5.279,-2.803"
           style="fill:#8bcfa3;fill-opacity:1;fill-rule:nonzero;stroke:none"
           id="path448" /><path
           d="m 257.655,97.882 c -0.522,1.9 -1.039,3.803 -1.537,5.71 -0.408,1.468 -0.764,2.95 -1.066,4.443 l -9.125,1.32 z"
           style="fill:#96eaa2;fill-opacity:1;fill-rule:nonzero;stroke:none"
           id="path450" /><path
           d="m 238.953,80.805 c 0.912,-0.771 1.801,-1.57 2.655,-2.407 1.42,-1.373 2.459,-3.074 3.843,-4.479 1.112,-1.138 2.384,-2.106 3.627,-3.099 0.129,-0.098 0.259,-0.197 0.39,-0.295 l 11.27,1.76 c -0.122,0.128 -0.232,0.266 -0.309,0.423 -0.448,0.884 -0.818,1.813 -0.941,2.8 1.127,-0.589 2.05,-1.493 3.183,-2.068 1.455,-0.433 2.814,0.997 2.824,2.391 -0.584,1.554 -1.873,2.719 -2.584,4.216 -0.881,1.807 -1.352,3.778 -1.909,5.701 -1.088,4.051 -2.233,8.088 -3.347,12.134 l -11.728,11.473 z"
           style="fill:#9ae292;fill-opacity:1;fill-rule:nonzero;stroke:none"
           id="path452" /><path
           d="m 251.775,164.074 -7.47,32.191 c -2.558,1.39 -5.174,2.673 -7.788,3.958 -4.691,2.179 -9.343,4.458 -14.09,6.511 -4.948,2.121 -9.916,4.203 -14.942,6.139 L 188,182 Z"
           style="fill:#ffce00;fill-opacity:1;fill-rule:nonzero;stroke:none"
           id="path454" /><path
           d="m 222.042,139.309 c 0.467,-2.152 1.131,-4.27 1.857,-6.333 0.88,-2.568 1.86,-5.107 2.55,-7.738 0.694,-2.524 0.937,-5.137 1.229,-7.733 0.234,-2.502 0.422,-5.015 0.493,-7.532 l 17.756,-0.618 z"
           style="fill:#f0d03c;fill-opacity:1;fill-rule:nonzero;stroke:none"
           id="path456" /><path
           d="m 185.854,173.703 c 2.869,0.043 5.738,0.106 8.606,0.195 L 188,182 Z"
           style="fill:#f0d03c;fill-opacity:1;fill-rule:nonzero;stroke:none"
           id="path458" /><path
           d="M 251.775,164.074 188,182 l 6.46,-8.102 c 0.811,0.027 1.622,0.051 2.433,0.082 0.64,0.134 1.669,-0.126 1.877,0.718 0.141,0.712 0.042,1.441 0.024,2.156 1.384,-1.007 3.074,-1.409 4.652,-2.022 2.141,-0.792 4.357,-1.373 6.617,-1.718 3.673,-0.669 7.371,-1.229 10.977,-2.212 0.81,-0.25 1.669,-0.454 2.366,-0.964 0.93,-0.842 1.233,-2.152 1.282,-3.364 0.064,-1.616 0.18,-3.274 -0.247,-4.855 -1.197,-4.811 -2.665,-9.601 -2.975,-14.576 -0.255,-2.639 0.018,-5.261 0.576,-7.834 l 23.885,-29.954 z"
           style="fill:#f6e63a;fill-opacity:1;fill-rule:nonzero;stroke:none"
           id="path460" /><path
           d="m 187.525,291.347 c 0.075,0.353 0.14,0.71 0.264,1.045 0.409,0.809 1.419,0.835 2.184,1.06 1.306,0.257 1.94,1.704 3.296,1.862 0.64,0.916 -0.247,2.208 0.19,3.188 1.316,0.75 3.074,0.954 3.972,2.296 0.543,1.631 -0.282,3.345 -0.049,5.011 0.267,1.694 1.17,3.275 2.486,4.37 1.078,0.81 2.451,1.166 3.423,2.137 1.726,1.712 3.388,3.61 4.226,5.935 0.683,1.895 0.43,3.947 0.098,5.884 -0.033,0.177 -0.069,0.353 -0.105,0.53 l -28.567,-34.359 z"
           style="fill:#fb6800;fill-opacity:1;fill-rule:nonzero;stroke:none"
           id="path462" /><path
           d="m 228.171,109.973 c 0.029,-1.039 0.041,-2.079 0.024,-3.12 -0.035,-0.666 0.015,-1.409 -0.39,-1.99 -0.543,-0.767 -1.377,-1.303 -1.8,-2.163 -0.954,-1.855 -1.824,-3.774 -2.331,-5.803 -0.472,-1.725 0.138,-3.497 0.725,-5.114 0.191,-0.404 0.292,-0.908 0.669,-1.189 1.86,-1.029 3.585,-2.279 5.353,-3.458 2.91,-2.012 5.828,-4.046 8.532,-6.331 l 6.974,28.55 z"
           style="fill:#c7df6f;fill-opacity:1;fill-rule:nonzero;stroke:none"
           id="path464" /><path
           d="m 188,182 19.485,30.873 c -1.788,0.69 -3.583,1.361 -5.387,2.01 -2.666,0.923 -5.523,1.292 -8.062,2.574 -1.616,0.774 -3.218,1.669 -4.493,2.947 -0.912,0.919 -1.366,2.17 -2.211,3.131 -0.571,0.62 -1.494,0.486 -2.201,0.811 -0.335,0.334 -0.236,0.844 -0.187,1.259 0.211,1.3 0.683,2.638 1.69,3.537 3.093,2.898 6.698,5.176 9.849,8.004 1.173,1.021 2.42,2.007 3.885,2.567 1.3,0.543 2.726,0.662 4.12,0.648 2.057,-0.035 4.065,0.444 6.085,0.761 1.494,0.299 3.03,0.507 4.438,1.108 1.296,0.585 2.028,1.86 2.767,3.001 0.575,0.835 0.998,1.772 1.452,2.687 l -66.326,-16.86 z"
           style="fill:#feb200;fill-opacity:1;fill-rule:nonzero;stroke:none"
           id="path466" /><path
           d="m 207.51,324.665 c -0.326,1.602 -0.744,3.194 -1.43,4.682 -0.732,1.528 -2.296,2.348 -3.416,3.549 -0.443,0.419 -0.19,1.06 0.085,1.498 1.289,1.982 3,3.636 4.567,5.39 1.546,1.635 3.036,3.315 4.553,4.97 1.353,1.581 3.015,3.011 3.685,5.046 0.197,0.655 0.682,1.532 0.035,2.081 -0.332,0.141 -0.691,0.011 -1.004,-0.102 -4.567,-1.923 -8.814,-4.553 -13.502,-6.205 -1.574,-0.588 -3.236,-0.929 -4.92,-0.975 -2.803,-0.141 -5.553,0.51 -8.31,0.912 -3.092,0.408 -6.068,1.37 -9.089,2.094 -2.196,0.606 -4.355,1.428 -6.558,2.048 l 6.737,-59.347 z"
           style="fill:#f35c00;fill-opacity:1;fill-rule:nonzero;stroke:none"
           id="path468" /><path
           d="m 183.36,287.012 c 0.026,0.004 0.051,0.006 0.077,0.009 1.542,0.413 2.613,1.719 3.535,2.937 0.329,0.407 0.45,0.894 0.553,1.389 l -8.582,-1.041 z"
           style="fill:#ff8500;fill-opacity:1;fill-rule:nonzero;stroke:none"
           id="path470" /><path
           d="m 226.294,263.146 c -1.528,-0.726 -3.071,-1.419 -4.613,-2.106 -0.353,-0.106 -0.785,-0.437 -1.106,-0.092 -0.508,0.461 -0.923,1.021 -1.482,1.426 -0.434,-0.211 -0.927,-0.377 -1.215,-0.789 -0.059,-0.064 -0.104,-0.132 -0.14,-0.202 l 4.99,-3.72 c -0.015,0.06 -0.03,0.119 -0.04,0.179 -0.106,0.427 0.37,0.62 0.655,0.806 3.097,1.656 6.315,3.073 9.526,4.499 l 0.35,3.293 c -2.309,-1.097 -4.616,-2.198 -6.925,-3.294"
           style="fill:#ff8500;fill-opacity:1;fill-rule:nonzero;stroke:none"
           id="path472" /><path
           d="m 217.616,262.497 c 1.251,1.015 -0.235,3.304 -1.672,2.638 -0.669,-0.292 -1.325,-0.612 -1.976,-0.942 l 3,-2.236 c 0.219,0.177 0.435,0.356 0.648,0.54"
           style="fill:#ff8500;fill-opacity:1;fill-rule:nonzero;stroke:none"
           id="path474" /><path
           d="m 217.723,259.67 c -0.958,-0.747 -2.127,-1.162 -3.226,-1.652 -0.451,-0.176 -0.909,-0.373 -1.398,-0.409 -0.342,0.215 -0.702,0.835 -0.236,1.123 1.303,1.156 2.752,2.133 4.105,3.225 l -3,2.236 c -1.817,-0.918 -3.594,-1.918 -5.487,-2.674 -1.502,-0.599 -2.958,-1.448 -3.96,-2.744 -1.357,-1.778 -2.487,-3.793 -4.307,-5.155 -1.339,-0.973 -2.804,-1.747 -4.251,-2.536 -2.892,-1.531 -5.789,-3.057 -8.751,-4.44 -0.697,-0.299 -1.366,-0.691 -2.12,-0.835 -0.796,0.69 -1.12,1.743 -1.546,2.672 -0.757,1.948 -1.535,3.973 -1.522,6.089 0.296,4.565 1.198,9.192 0.276,13.742 -1.026,4.874 -3.195,9.402 -5.321,13.871 -0.236,0.521 -0.607,0.994 -0.958,1.473 l -23.117,-52.598 66.326,16.86 c 0.531,1.067 1.101,2.106 1.999,2.92 0.987,0.933 2.318,1.697 2.699,3.085 0.282,1.403 -0.893,2.46 -1.2,3.74 l -4.99,3.72 c -0.259,-0.511 0.019,-1.154 -0.015,-1.713"
           style="fill:#fe9400;fill-opacity:1;fill-rule:nonzero;stroke:none"
           id="path476" /><path
           d="m 178.378,289.019 c 1.668,-0.611 3.079,-2.273 4.982,-2.007 l -4.417,3.294 z"
           style="fill:#fe9400;fill-opacity:1;fill-rule:nonzero;stroke:none"
           id="path478" /><path
           d="m 172.206,349.653 c -1.63,0.458 -3.284,0.806 -4.996,0.868 -4.106,0.099 -8.516,-0.415 -11.899,-2.958 -2,-1.373 -3.385,-3.482 -4.23,-5.729 -0.524,-1.542 -0.704,-3.169 -0.866,-4.782 -0.289,-3.546 -0.324,-7.114 -0.296,-10.67 0.098,-5.301 1.955,-10.448 1.816,-15.751 l 27.208,-20.325 z"
           style="fill:#f04f00;fill-opacity:1;fill-rule:nonzero;stroke:none"
           id="path480" /><path
           d="m 151.735,310.631 c -0.01,-0.387 -0.03,-0.775 -0.062,-1.163 -0.465,-3.487 -1.924,-6.744 -3.515,-9.846 -1.19,-2.174 -2.296,-4.413 -3.839,-6.36 -0.366,-0.603 -1.162,-1.331 -0.548,-2.033 1.739,0.61 3.331,1.553 4.958,2.406 2.577,1.39 5.145,2.8 7.761,4.106 0.876,0.525 1.933,0.155 2.726,-0.352 -0.789,-1.279 -2.022,-2.18 -3.029,-3.276 -1.416,-1.252 -2.852,-2.483 -4.263,-3.743 l 27.019,-0.064 z"
           style="fill:#f64e00;fill-opacity:1;fill-rule:nonzero;stroke:none"
           id="path482" /><path
           d="m 119.13,182.377 38.849,-53.87 c 0.53,14.983 0.915,29.972 1.195,44.959 3.45,0.053 6.905,-0.031 10.352,0.106 5.442,0.033 10.885,0.051 16.328,0.131 L 188,182 Z"
           style="fill:#fb9b00;fill-opacity:1;fill-rule:nonzero;stroke:none"
           id="path484" /><path
           d="m 188,182 -35.096,49.058 -15.436,-22.25 c 0.463,-1.267 0.903,-2.54 1.284,-3.835 -1.024,-0.412 -2.103,0.074 -3.145,0.124 -0.227,0.014 -0.455,0.03 -0.682,0.046 L 119.13,182.377 Z"
           style="fill:#ffa300;fill-opacity:1;fill-rule:nonzero;stroke:none"
           id="path486" /><path
           d="m 176.021,283.656 c -0.539,0.734 -1.031,1.483 -0.917,2.447 0.163,1.098 0.465,2.359 1.41,3.045 0.674,0.168 1.284,0.083 1.864,-0.129 l 0.565,1.287 -27.019,0.064 c -1.441,-1.288 -2.855,-2.604 -4.192,-4.004 -3.229,-3.271 -6.23,-6.905 -8.044,-11.166 -1.574,-3.631 -2.74,-7.428 -3.855,-11.22 -1.031,-3.55 -1.934,-7.14 -2.7,-10.758 l 19.771,-22.164 z"
           style="fill:#fd7700;fill-opacity:1;fill-rule:nonzero;stroke:none"
           id="path488" /><path
           d="m 115.311,172.843 c 0.067,-0.536 0.074,-1.089 0.131,-1.616 0.219,-7.808 -0.298,-15.612 -0.661,-23.409 -0.614,-10.968 -1.334,-21.931 -2.044,-32.893 l 44.627,-2.286 c 0.225,5.289 0.429,10.578 0.615,15.868 l -38.849,53.87 z"
           style="fill:#f56500;fill-opacity:1;fill-rule:nonzero;stroke:none"
           id="path490" /><path
           d="m 148.725,31.809 c 1.194,1.166 1.582,2.863 2.052,4.405 1.491,5.804 2.15,11.779 2.819,17.724 0.571,5.482 1.035,10.972 1.438,16.467 L 128.618,31.809 Z"
           style="fill:#bc5024;fill-opacity:1;fill-rule:nonzero;stroke:none"
           id="path492" /><path
           d="M 111.932,102.289 155.139,71.85 c 0.424,5.95 0.781,11.905 1.126,17.86 0.412,7.641 0.775,15.284 1.099,22.929 l -44.627,2.286 c -0.272,-4.212 -0.543,-8.424 -0.805,-12.636"
           style="fill:#e07000;fill-opacity:1;fill-rule:nonzero;stroke:none"
           id="path494" /><path
           d="m 134.925,205.143 c -5.21,0.358 -10.42,0.968 -15.651,0.732 -0.901,-0.07 -1.831,-0.142 -2.683,-0.483 -0.634,-0.243 -1.035,-0.876 -1.127,-1.536 -0.331,-2.331 0.944,-4.57 0.602,-6.902 -0.133,-1.038 -1.313,-1.038 -2.116,-1.074 -0.44,-0.013 -0.88,-0.023 -1.32,-0.03 l 6.5,-13.473 z"
           style="fill:#ff8800;fill-opacity:1;fill-rule:nonzero;stroke:none"
           id="path496" /><path
           d="m 131.356,228.821 c 0.803,-4.688 2.202,-9.262 3.79,-13.741 0.726,-2.106 1.555,-4.179 2.322,-6.272 l 15.436,22.25 z"
           style="fill:#ff8800;fill-opacity:1;fill-rule:nonzero;stroke:none"
           id="path498" /><path
           d="m 133.133,253.222 c -0.553,-2.612 -1.038,-5.237 -1.442,-7.874 -0.717,-4.983 -1.317,-10.076 -0.563,-15.093 0.068,-0.48 0.146,-0.957 0.228,-1.434 l 21.548,2.237 z"
           style="fill:#fd7400;fill-opacity:1;fill-rule:nonzero;stroke:none"
           id="path500" /><path
           d="m 109.598,47.571 c 0.027,-5.261 -0.015,-10.55 0.802,-15.762 h 18.218 l 26.416,38.596 c 0.021,0.286 0.042,0.573 0.063,0.86 L 109.788,59.513 c -0.113,-3.98 -0.184,-7.96 -0.19,-11.942"
           style="fill:#c22c00;fill-opacity:1;fill-rule:nonzero;stroke:none"
           id="path502" /><path
           d="m 110.903,84.836 c -0.437,-8.439 -0.874,-16.878 -1.115,-25.323 l 45.309,11.752 c 0.013,0.194 0.028,0.389 0.042,0.585 l -43.207,30.439 c -0.364,-5.817 -0.713,-11.634 -1.029,-17.453"
           style="fill:#d54200;fill-opacity:1;fill-rule:nonzero;stroke:none"
           id="path504" /><path
           d="m 119.13,182.377 -6.5,13.473 c -2.96,-0.052 -5.923,0.006 -8.879,0.154 -10.35,0.434 -20.685,1.166 -31.024,1.859 -2.791,0.182 -5.581,0.382 -8.371,0.554 L 54.6,190.68 Z"
           style="fill:#ff7200;fill-opacity:1;fill-rule:nonzero;stroke:none"
           id="path506" /><path
           d="m 54.6,190.68 7.765,-15.301 c 10.025,0.054 20.046,0.426 30.068,0.566 3.015,0.077 6.029,-0.271 9.037,0.014 2.923,0.201 5.856,0.577 8.789,0.328 1.733,-0.194 3.564,-0.782 4.705,-2.177 0.197,-0.396 0.292,-0.827 0.347,-1.267 l 3.819,9.534 z"
           style="fill:#fc6300;fill-opacity:1;fill-rule:nonzero;stroke:none"
           id="path508" /><path
           d="m 54.565,175.39 c 1.272,-0.01 2.543,-0.014 3.815,-0.015 1.328,-0.006 2.657,-0.004 3.985,0.004 L 54.6,190.68 Z"
           style="fill:#f23700;fill-opacity:1;fill-rule:nonzero;stroke:none"
           id="path510" /><path
           d="m 64.356,198.417 c -2.456,0.151 -4.912,0.28 -7.371,0.352 -0.397,0.002 -0.795,0.002 -1.192,0.005 L 54.6,190.68 Z"
           style="fill:#fa6800;fill-opacity:1;fill-rule:nonzero;stroke:none"
           id="path512" /><path
           d="m 34.983,188.142 v -11.275 c 1.444,-0.369 2.917,-0.595 4.398,-0.763 5.043,-0.536 10.114,-0.676 15.184,-0.714 l 0.035,15.29 z"
           style="fill:#f24600;fill-opacity:1;fill-rule:nonzero;stroke:none"
           id="path514" /><path
           d="m 55.793,198.774 c -4.153,0.022 -8.312,0.015 -12.464,0.008 -0.523,0.007 -1.047,0.007 -1.57,0.004 L 54.6,190.68 Z"
           style="fill:#f55e00;fill-opacity:1;fill-rule:nonzero;stroke:none"
           id="path516" /><path
           d="m 41.759,198.786 c -1.923,-0.008 -3.847,-0.045 -5.764,0.116 0.096,0.564 0.458,1.119 0.361,1.683 -0.081,0.008 -0.245,0.015 -0.329,0.021 -0.405,-0.873 -0.699,-1.792 -1.044,-2.694 v -9.77 L 54.6,190.68 Z"
           style="fill:#f15700;fill-opacity:1;fill-rule:nonzero;stroke:none"
           id="path518" /></g></g></g></svg>
